<mxfile host="app.diagrams.net" modified="2021-06-16T03:00:50.710Z" agent="5.0 (Macintosh; Intel Mac OS X 10_15_7) AppleWebKit/537.36 (KHTML, like Gecko) Chrome/91.0.4472.77 Safari/537.36" etag="dQ3IP7xpYQVlUTclJMcx" version="14.7.3" type="github">
  <diagram id="prtHgNgQTEPvFCAcTncT" name="Page-1">
    <mxGraphModel dx="713" dy="737" grid="1" gridSize="10" guides="1" tooltips="1" connect="1" arrows="1" fold="1" page="1" pageScale="1" pageWidth="827" pageHeight="1169" math="0" shadow="0">
      <root>
        <mxCell id="0" />
        <mxCell id="1" parent="0" />
        <mxCell id="dNxyNK7c78bLwvsdeMH5-19" value="数据集成平台开发到生产流程" style="swimlane;html=1;childLayout=stackLayout;resizeParent=1;resizeParentMax=0;horizontal=0;startSize=20;horizontalStack=0;" parent="1" vertex="1">
          <mxGeometry x="120" y="120" width="1260" height="360" as="geometry">
            <mxRectangle x="120" y="120" width="30" height="50" as="alternateBounds" />
          </mxGeometry>
        </mxCell>
        <mxCell id="pi8qZULmuyt4mJJAqVa2-26" value="" style="edgeStyle=orthogonalEdgeStyle;rounded=0;orthogonalLoop=1;jettySize=auto;html=1;endArrow=classic;endFill=1;dashed=1;" edge="1" parent="dNxyNK7c78bLwvsdeMH5-19" source="pi8qZULmuyt4mJJAqVa2-18" target="pi8qZULmuyt4mJJAqVa2-24">
          <mxGeometry relative="1" as="geometry">
            <mxPoint x="504" y="300" as="sourcePoint" />
            <mxPoint x="544" y="300" as="targetPoint" />
          </mxGeometry>
        </mxCell>
        <mxCell id="pi8qZULmuyt4mJJAqVa2-28" value="N" style="edgeLabel;html=1;align=center;verticalAlign=middle;resizable=0;points=[];fontSize=12;" vertex="1" connectable="0" parent="pi8qZULmuyt4mJJAqVa2-26">
          <mxGeometry x="-0.6107" y="-1" relative="1" as="geometry">
            <mxPoint as="offset" />
          </mxGeometry>
        </mxCell>
        <mxCell id="pi8qZULmuyt4mJJAqVa2-29" style="edgeStyle=orthogonalEdgeStyle;rounded=0;orthogonalLoop=1;jettySize=auto;html=1;endArrow=classic;endFill=1;dashed=1;" edge="1" parent="dNxyNK7c78bLwvsdeMH5-19" source="pi8qZULmuyt4mJJAqVa2-24" target="dNxyNK7c78bLwvsdeMH5-30">
          <mxGeometry relative="1" as="geometry">
            <mxPoint x="464" y="210" as="sourcePoint" />
            <mxPoint x="464" y="270" as="targetPoint" />
          </mxGeometry>
        </mxCell>
        <mxCell id="pi8qZULmuyt4mJJAqVa2-47" value="" style="endArrow=classic;html=1;fontSize=12;dashed=1;" edge="1" parent="dNxyNK7c78bLwvsdeMH5-19" source="pi8qZULmuyt4mJJAqVa2-33" target="pi8qZULmuyt4mJJAqVa2-46">
          <mxGeometry width="50" height="50" relative="1" as="geometry">
            <mxPoint x="1004" y="290" as="sourcePoint" />
            <mxPoint x="1054" y="240" as="targetPoint" />
          </mxGeometry>
        </mxCell>
        <mxCell id="pi8qZULmuyt4mJJAqVa2-48" value="N" style="edgeLabel;html=1;align=center;verticalAlign=middle;resizable=0;points=[];fontSize=12;" vertex="1" connectable="0" parent="pi8qZULmuyt4mJJAqVa2-47">
          <mxGeometry x="-0.681" y="1" relative="1" as="geometry">
            <mxPoint x="-1" y="9" as="offset" />
          </mxGeometry>
        </mxCell>
        <mxCell id="pi8qZULmuyt4mJJAqVa2-49" value="" style="endArrow=classic;html=1;dashed=1;fontSize=12;rounded=0;" edge="1" parent="dNxyNK7c78bLwvsdeMH5-19" source="pi8qZULmuyt4mJJAqVa2-46" target="pi8qZULmuyt4mJJAqVa2-30">
          <mxGeometry width="50" height="50" relative="1" as="geometry">
            <mxPoint x="884" y="210" as="sourcePoint" />
            <mxPoint x="934" y="160" as="targetPoint" />
            <Array as="points">
              <mxPoint x="785" y="180" />
            </Array>
          </mxGeometry>
        </mxCell>
        <mxCell id="pi8qZULmuyt4mJJAqVa2-50" value="" style="endArrow=classic;html=1;fontSize=12;" edge="1" parent="dNxyNK7c78bLwvsdeMH5-19" source="pi8qZULmuyt4mJJAqVa2-32" target="pi8qZULmuyt4mJJAqVa2-38">
          <mxGeometry width="50" height="50" relative="1" as="geometry">
            <mxPoint x="964" y="320" as="sourcePoint" />
            <mxPoint x="1014" y="270" as="targetPoint" />
          </mxGeometry>
        </mxCell>
        <mxCell id="pi8qZULmuyt4mJJAqVa2-52" value="" style="endArrow=classic;html=1;fontSize=12;" edge="1" parent="dNxyNK7c78bLwvsdeMH5-19" source="pi8qZULmuyt4mJJAqVa2-51" target="pi8qZULmuyt4mJJAqVa2-32">
          <mxGeometry width="50" height="50" relative="1" as="geometry">
            <mxPoint x="1269" y="220" as="sourcePoint" />
            <mxPoint x="1269" y="280" as="targetPoint" />
          </mxGeometry>
        </mxCell>
        <mxCell id="dNxyNK7c78bLwvsdeMH5-20" value="开发环境" style="swimlane;html=1;startSize=20;horizontal=0;fontSize=10;" parent="dNxyNK7c78bLwvsdeMH5-19" vertex="1">
          <mxGeometry x="20" width="1240" height="120" as="geometry">
            <mxRectangle x="20" width="430" height="20" as="alternateBounds" />
          </mxGeometry>
        </mxCell>
        <mxCell id="dNxyNK7c78bLwvsdeMH5-25" value="" style="edgeStyle=orthogonalEdgeStyle;rounded=0;orthogonalLoop=1;jettySize=auto;html=1;" parent="dNxyNK7c78bLwvsdeMH5-20" source="dNxyNK7c78bLwvsdeMH5-23" target="dNxyNK7c78bLwvsdeMH5-24" edge="1">
          <mxGeometry relative="1" as="geometry" />
        </mxCell>
        <mxCell id="dNxyNK7c78bLwvsdeMH5-23" value="" style="ellipse;whiteSpace=wrap;html=1;" parent="dNxyNK7c78bLwvsdeMH5-20" vertex="1">
          <mxGeometry x="40" y="40" width="40" height="40" as="geometry" />
        </mxCell>
        <mxCell id="dNxyNK7c78bLwvsdeMH5-24" value="从采购列表的数据源拉取数据" style="rounded=0;whiteSpace=wrap;html=1;fontFamily=Helvetica;fontSize=12;fontColor=#000000;align=center;" parent="dNxyNK7c78bLwvsdeMH5-20" vertex="1">
          <mxGeometry x="110" y="30" width="80" height="60" as="geometry" />
        </mxCell>
        <mxCell id="dNxyNK7c78bLwvsdeMH5-30" value="在任务调度系统编写相应任务（每个具体任务构成一个DAG）" style="rounded=0;whiteSpace=wrap;html=1;fontFamily=Helvetica;fontSize=12;fontColor=#000000;align=center;" parent="dNxyNK7c78bLwvsdeMH5-20" vertex="1">
          <mxGeometry x="400" y="30" width="105" height="60" as="geometry" />
        </mxCell>
        <mxCell id="pi8qZULmuyt4mJJAqVa2-1" value="用固定规范测试每个DAG（代码REVIEW、单元测试等）" style="rounded=0;whiteSpace=wrap;html=1;fontFamily=Helvetica;fontSize=12;fontColor=#000000;align=center;" vertex="1" parent="dNxyNK7c78bLwvsdeMH5-20">
          <mxGeometry x="524" y="30" width="90" height="60" as="geometry" />
        </mxCell>
        <mxCell id="pi8qZULmuyt4mJJAqVa2-18" value="通过" style="rhombus;whiteSpace=wrap;html=1;fontFamily=Helvetica;fontSize=10;fontColor=#000000;align=center;" vertex="1" parent="dNxyNK7c78bLwvsdeMH5-20">
          <mxGeometry x="644" y="40" width="40" height="40" as="geometry" />
        </mxCell>
        <mxCell id="pi8qZULmuyt4mJJAqVa2-20" value="" style="edgeStyle=orthogonalEdgeStyle;rounded=0;orthogonalLoop=1;jettySize=auto;html=1;endArrow=classic;endFill=1;" edge="1" parent="dNxyNK7c78bLwvsdeMH5-20" source="pi8qZULmuyt4mJJAqVa2-1" target="pi8qZULmuyt4mJJAqVa2-18">
          <mxGeometry relative="1" as="geometry">
            <mxPoint x="364" y="190" as="sourcePoint" />
            <mxPoint x="424" y="190" as="targetPoint" />
          </mxGeometry>
        </mxCell>
        <mxCell id="pi8qZULmuyt4mJJAqVa2-21" value="" style="endArrow=classic;html=1;fontSize=12;" edge="1" parent="dNxyNK7c78bLwvsdeMH5-20" source="dNxyNK7c78bLwvsdeMH5-30" target="pi8qZULmuyt4mJJAqVa2-1">
          <mxGeometry width="50" height="50" relative="1" as="geometry">
            <mxPoint x="574" y="230" as="sourcePoint" />
            <mxPoint x="624" y="180" as="targetPoint" />
          </mxGeometry>
        </mxCell>
        <mxCell id="pi8qZULmuyt4mJJAqVa2-22" value="N" style="endArrow=classic;html=1;fontSize=12;startArrow=none;" edge="1" parent="dNxyNK7c78bLwvsdeMH5-20" source="pi8qZULmuyt4mJJAqVa2-59" target="dNxyNK7c78bLwvsdeMH5-30">
          <mxGeometry width="50" height="50" relative="1" as="geometry">
            <mxPoint x="494" y="70" as="sourcePoint" />
            <mxPoint x="534" y="70" as="targetPoint" />
            <Array as="points">
              <mxPoint x="360" y="60" />
            </Array>
          </mxGeometry>
        </mxCell>
        <mxCell id="pi8qZULmuyt4mJJAqVa2-25" value="" style="edgeStyle=orthogonalEdgeStyle;rounded=0;orthogonalLoop=1;jettySize=auto;html=1;endArrow=classic;endFill=1;" edge="1" parent="dNxyNK7c78bLwvsdeMH5-20" source="pi8qZULmuyt4mJJAqVa2-18" target="pi8qZULmuyt4mJJAqVa2-30">
          <mxGeometry relative="1" as="geometry">
            <mxPoint x="484" y="300" as="sourcePoint" />
            <mxPoint x="770" y="60" as="targetPoint" />
          </mxGeometry>
        </mxCell>
        <mxCell id="pi8qZULmuyt4mJJAqVa2-27" value="Y" style="edgeLabel;html=1;align=center;verticalAlign=middle;resizable=0;points=[];fontSize=12;" vertex="1" connectable="0" parent="pi8qZULmuyt4mJJAqVa2-25">
          <mxGeometry x="-0.2714" y="1" relative="1" as="geometry">
            <mxPoint as="offset" />
          </mxGeometry>
        </mxCell>
        <mxCell id="pi8qZULmuyt4mJJAqVa2-30" value="按照计划执行DAG，形成一个SCHEDULE，生成可用的数据" style="rounded=0;whiteSpace=wrap;html=1;fontFamily=Helvetica;fontSize=12;fontColor=#000000;align=center;" vertex="1" parent="dNxyNK7c78bLwvsdeMH5-20">
          <mxGeometry x="720" y="30" width="90" height="60" as="geometry" />
        </mxCell>
        <mxCell id="pi8qZULmuyt4mJJAqVa2-39" value="开发升级到生产的数据测试" style="rounded=0;whiteSpace=wrap;html=1;fontFamily=Helvetica;fontSize=12;fontColor=#000000;align=center;" vertex="1" parent="dNxyNK7c78bLwvsdeMH5-20">
          <mxGeometry x="930" y="30" width="90" height="60" as="geometry" />
        </mxCell>
        <mxCell id="pi8qZULmuyt4mJJAqVa2-40" value="" style="endArrow=classic;html=1;fontSize=12;" edge="1" parent="dNxyNK7c78bLwvsdeMH5-20" source="pi8qZULmuyt4mJJAqVa2-67" target="pi8qZULmuyt4mJJAqVa2-39">
          <mxGeometry width="50" height="50" relative="1" as="geometry">
            <mxPoint x="824" y="70" as="sourcePoint" />
            <mxPoint x="851" y="70" as="targetPoint" />
            <Array as="points" />
          </mxGeometry>
        </mxCell>
        <mxCell id="pi8qZULmuyt4mJJAqVa2-33" value="通过" style="rhombus;whiteSpace=wrap;html=1;fontFamily=Helvetica;fontSize=10;fontColor=#000000;align=center;" vertex="1" parent="dNxyNK7c78bLwvsdeMH5-20">
          <mxGeometry x="1050" y="40" width="40" height="40" as="geometry" />
        </mxCell>
        <mxCell id="pi8qZULmuyt4mJJAqVa2-41" value="" style="endArrow=classic;html=1;fontSize=12;" edge="1" parent="dNxyNK7c78bLwvsdeMH5-20" source="pi8qZULmuyt4mJJAqVa2-39" target="pi8qZULmuyt4mJJAqVa2-33">
          <mxGeometry width="50" height="50" relative="1" as="geometry">
            <mxPoint x="934" y="190" as="sourcePoint" />
            <mxPoint x="984" y="140" as="targetPoint" />
          </mxGeometry>
        </mxCell>
        <mxCell id="pi8qZULmuyt4mJJAqVa2-51" value="数据的状态设置为生产可用" style="rounded=0;whiteSpace=wrap;html=1;fontFamily=Helvetica;fontSize=12;fontColor=#000000;align=center;" vertex="1" parent="dNxyNK7c78bLwvsdeMH5-20">
          <mxGeometry x="1140" y="30" width="90" height="60" as="geometry" />
        </mxCell>
        <mxCell id="pi8qZULmuyt4mJJAqVa2-42" value="" style="edgeStyle=orthogonalEdgeStyle;rounded=0;orthogonalLoop=1;jettySize=auto;html=1;endArrow=classic;endFill=1;" edge="1" parent="dNxyNK7c78bLwvsdeMH5-20" source="pi8qZULmuyt4mJJAqVa2-33" target="pi8qZULmuyt4mJJAqVa2-51">
          <mxGeometry relative="1" as="geometry">
            <mxPoint x="1144" y="40" as="sourcePoint" />
            <mxPoint x="1194" y="60" as="targetPoint" />
          </mxGeometry>
        </mxCell>
        <mxCell id="pi8qZULmuyt4mJJAqVa2-43" value="Y" style="edgeLabel;html=1;align=center;verticalAlign=middle;resizable=0;points=[];fontSize=12;" vertex="1" connectable="0" parent="pi8qZULmuyt4mJJAqVa2-42">
          <mxGeometry x="-0.2714" y="1" relative="1" as="geometry">
            <mxPoint as="offset" />
          </mxGeometry>
        </mxCell>
        <mxCell id="pi8qZULmuyt4mJJAqVa2-58" value="如果使用新数据源，说明必要性，形成文档，并评审" style="rounded=0;whiteSpace=wrap;html=1;fontFamily=Helvetica;fontSize=12;fontColor=#000000;align=center;" vertex="1" parent="dNxyNK7c78bLwvsdeMH5-20">
          <mxGeometry x="220" y="30" width="80" height="60" as="geometry" />
        </mxCell>
        <mxCell id="pi8qZULmuyt4mJJAqVa2-59" value="通过" style="rhombus;whiteSpace=wrap;html=1;fontFamily=Helvetica;fontSize=10;fontColor=#000000;align=center;" vertex="1" parent="dNxyNK7c78bLwvsdeMH5-20">
          <mxGeometry x="320" y="40" width="40" height="40" as="geometry" />
        </mxCell>
        <mxCell id="pi8qZULmuyt4mJJAqVa2-61" value="" style="endArrow=classic;html=1;fontSize=12;" edge="1" parent="dNxyNK7c78bLwvsdeMH5-20" source="pi8qZULmuyt4mJJAqVa2-58" target="pi8qZULmuyt4mJJAqVa2-59">
          <mxGeometry width="50" height="50" relative="1" as="geometry">
            <mxPoint x="330" y="250" as="sourcePoint" />
            <mxPoint x="380" y="200" as="targetPoint" />
          </mxGeometry>
        </mxCell>
        <mxCell id="pi8qZULmuyt4mJJAqVa2-67" value="DAG状态设置为开发可用" style="rounded=0;whiteSpace=wrap;html=1;fontFamily=Helvetica;fontSize=12;fontColor=#000000;align=center;" vertex="1" parent="dNxyNK7c78bLwvsdeMH5-20">
          <mxGeometry x="830" y="30" width="80" height="60" as="geometry" />
        </mxCell>
        <mxCell id="pi8qZULmuyt4mJJAqVa2-68" value="" style="endArrow=classic;html=1;fontSize=12;" edge="1" parent="dNxyNK7c78bLwvsdeMH5-20" source="pi8qZULmuyt4mJJAqVa2-30" target="pi8qZULmuyt4mJJAqVa2-67">
          <mxGeometry width="50" height="50" relative="1" as="geometry">
            <mxPoint x="920" y="70" as="sourcePoint" />
            <mxPoint x="940" y="70" as="targetPoint" />
            <Array as="points" />
          </mxGeometry>
        </mxCell>
        <mxCell id="dNxyNK7c78bLwvsdeMH5-21" value="审批流程" style="swimlane;html=1;startSize=20;horizontal=0;" parent="dNxyNK7c78bLwvsdeMH5-19" vertex="1">
          <mxGeometry x="20" y="120" width="1240" height="120" as="geometry">
            <mxRectangle x="20" y="120" width="430" height="20" as="alternateBounds" />
          </mxGeometry>
        </mxCell>
        <mxCell id="pi8qZULmuyt4mJJAqVa2-24" value="提交审批：重新构建DAG" style="rounded=0;whiteSpace=wrap;html=1;fontFamily=Helvetica;fontSize=12;fontColor=#000000;align=center;" vertex="1" parent="dNxyNK7c78bLwvsdeMH5-21">
          <mxGeometry x="624" y="30" width="80" height="60" as="geometry" />
        </mxCell>
        <mxCell id="pi8qZULmuyt4mJJAqVa2-32" value="提交审批：数据从开发升级到生产" style="rounded=0;whiteSpace=wrap;html=1;fontFamily=Helvetica;fontSize=12;fontColor=#000000;align=center;" vertex="1" parent="dNxyNK7c78bLwvsdeMH5-21">
          <mxGeometry x="1140" y="30" width="90" height="60" as="geometry" />
        </mxCell>
        <mxCell id="pi8qZULmuyt4mJJAqVa2-46" value="&lt;span&gt;提交审批：重新构建&lt;/span&gt;SCHEDULE" style="rounded=0;whiteSpace=wrap;html=1;fontFamily=Helvetica;fontSize=12;fontColor=#000000;align=center;" vertex="1" parent="dNxyNK7c78bLwvsdeMH5-21">
          <mxGeometry x="1022.5" y="30" width="95" height="60" as="geometry" />
        </mxCell>
        <mxCell id="pi8qZULmuyt4mJJAqVa2-62" value="提交审批：采购新的数据源" style="rounded=0;whiteSpace=wrap;html=1;fontFamily=Helvetica;fontSize=12;fontColor=#000000;align=center;" vertex="1" parent="dNxyNK7c78bLwvsdeMH5-21">
          <mxGeometry x="300" y="20" width="80" height="60" as="geometry" />
        </mxCell>
        <mxCell id="dNxyNK7c78bLwvsdeMH5-22" value="生产环境" style="swimlane;html=1;startSize=20;horizontal=0;" parent="dNxyNK7c78bLwvsdeMH5-19" vertex="1">
          <mxGeometry x="20" y="240" width="1240" height="120" as="geometry" />
        </mxCell>
        <mxCell id="pi8qZULmuyt4mJJAqVa2-38" value="状态为生产可用的开发环境数据，同步到生产环境" style="rounded=0;whiteSpace=wrap;html=1;fontFamily=Helvetica;fontSize=12;fontColor=#000000;align=center;" vertex="1" parent="dNxyNK7c78bLwvsdeMH5-22">
          <mxGeometry x="1140" y="30" width="90" height="60" as="geometry" />
        </mxCell>
        <mxCell id="pi8qZULmuyt4mJJAqVa2-54" value="" style="ellipse;whiteSpace=wrap;html=1;fillColor=#0000000;" vertex="1" parent="dNxyNK7c78bLwvsdeMH5-22">
          <mxGeometry x="1030" y="40" width="40" height="40" as="geometry" />
        </mxCell>
        <mxCell id="pi8qZULmuyt4mJJAqVa2-55" value="" style="endArrow=classic;html=1;fontSize=12;" edge="1" parent="dNxyNK7c78bLwvsdeMH5-22" source="pi8qZULmuyt4mJJAqVa2-38" target="pi8qZULmuyt4mJJAqVa2-54">
          <mxGeometry width="50" height="50" relative="1" as="geometry">
            <mxPoint x="994" y="-10" as="sourcePoint" />
            <mxPoint x="1044" y="-60" as="targetPoint" />
          </mxGeometry>
        </mxCell>
        <mxCell id="pi8qZULmuyt4mJJAqVa2-63" value="" style="endArrow=classic;html=1;fontSize=12;dashed=1;" edge="1" parent="dNxyNK7c78bLwvsdeMH5-19" source="pi8qZULmuyt4mJJAqVa2-59" target="pi8qZULmuyt4mJJAqVa2-62">
          <mxGeometry width="50" height="50" relative="1" as="geometry">
            <mxPoint x="350" y="250" as="sourcePoint" />
            <mxPoint x="400" y="200" as="targetPoint" />
          </mxGeometry>
        </mxCell>
        <mxCell id="pi8qZULmuyt4mJJAqVa2-65" value="Y" style="edgeLabel;html=1;align=center;verticalAlign=middle;resizable=0;points=[];fontSize=12;" vertex="1" connectable="0" parent="pi8qZULmuyt4mJJAqVa2-63">
          <mxGeometry x="-0.2667" y="1" relative="1" as="geometry">
            <mxPoint as="offset" />
          </mxGeometry>
        </mxCell>
        <mxCell id="pi8qZULmuyt4mJJAqVa2-66" value="" style="endArrow=classic;html=1;dashed=1;fontSize=12;rounded=0;" edge="1" parent="dNxyNK7c78bLwvsdeMH5-19" source="pi8qZULmuyt4mJJAqVa2-62" target="dNxyNK7c78bLwvsdeMH5-24">
          <mxGeometry width="50" height="50" relative="1" as="geometry">
            <mxPoint x="190" y="220" as="sourcePoint" />
            <mxPoint x="240" y="170" as="targetPoint" />
            <Array as="points">
              <mxPoint x="170" y="170" />
            </Array>
          </mxGeometry>
        </mxCell>
        <mxCell id="pi8qZULmuyt4mJJAqVa2-64" value="" style="endArrow=classic;html=1;fontSize=12;" edge="1" parent="1" source="dNxyNK7c78bLwvsdeMH5-24">
          <mxGeometry width="50" height="50" relative="1" as="geometry">
            <mxPoint x="440" y="360" as="sourcePoint" />
            <mxPoint x="360" y="180" as="targetPoint" />
          </mxGeometry>
        </mxCell>
      </root>
    </mxGraphModel>
  </diagram>
</mxfile>
